<?xml version="1.0" encoding="UTF-8"?>
<svg width="40px" height="40px" viewBox="0 0 40 40" version="1.1" xmlns="http://www.w3.org/2000/svg" xmlns:xlink="http://www.w3.org/1999/xlink">
    <title>check-circle-colour</title>
    <g id="页面-1" stroke="none" stroke-width="1" fill="none" fill-rule="evenodd">
        <g id="人员选择" transform="translate(-646.000000, -417.000000)" fill-rule="nonzero">
            <g id="信息输入:50/表单Form:1/输入框:1/内容:无值" transform="translate(0.000000, 389.000000)">
                <g id="Group" transform="translate(0.000000, 0.000000)">
                    <g id="check-circle-colour" transform="translate(646.000000, 28.000000)">
                        <rect id="Rectangle" fill="#000000" opacity="0" x="0" y="0" width="40" height="40"></rect>
                        <path d="M27.3046875,13.7890625 L25.4726563,13.7890625 C25.0742188,13.7890625 24.6953125,13.9804688 24.4609375,14.3085938 L18.3203125,22.8242188 L15.5390625,18.9648438 C15.3046875,18.640625 14.9296875,18.4453125 14.5273438,18.4453125 L12.6953125,18.4453125 C12.4414063,18.4453125 12.2929688,18.734375 12.4414063,18.9414062 L17.3085938,25.6914062 C17.8046875,26.3828125 18.8320313,26.3828125 19.328125,25.6914062 L27.5546875,14.2851562 C27.7070313,14.078125 27.5585938,13.7890625 27.3046875,13.7890625 Z" id="Path" fill="#486CE8"></path>
                        <path d="M20,2.5 C10.3359375,2.5 2.5,10.3359375 2.5,20 C2.5,29.6640625 10.3359375,37.5 20,37.5 C29.6640625,37.5 37.5,29.6640625 37.5,20 C37.5,10.3359375 29.6640625,2.5 20,2.5 Z M20,34.53125 C11.9765625,34.53125 5.46875,28.0234375 5.46875,20 C5.46875,11.9765625 11.9765625,5.46875 20,5.46875 C28.0234375,5.46875 34.53125,11.9765625 34.53125,20 C34.53125,28.0234375 28.0234375,34.53125 20,34.53125 Z" id="Shape" fill="#486CE8"></path>
                    </g>
                </g>
            </g>
        </g>
    </g>
</svg>