<?xml version="1.0" encoding="UTF-8"?>
<svg width="40px" height="40px" viewBox="0 0 40 40" version="1.1" xmlns="http://www.w3.org/2000/svg" xmlns:xlink="http://www.w3.org/1999/xlink">
    <title>team</title>
    <g id="页面-1" stroke="none" stroke-width="1" fill="none" fill-rule="evenodd">
        <g id="通讯录" transform="translate(-61.000000, -482.000000)" fill-rule="nonzero">
            <g id="信息输入:50/表单Form:1/输入框:1/内容:无值" transform="translate(0.000000, 454.000000)">
                <g id="team" transform="translate(61.000000, 28.000000)">
                    <rect id="Rectangle" fill="#000000" opacity="0" x="0" y="0" width="40" height="40"></rect>
                    <path d="M32.1953125,27.3398437 C31.203125,26.3476562 30.0585937,25.5546875 28.8203125,24.9804688 C30.5898438,23.546875 31.71875,21.359375 31.71875,18.90625 C31.71875,14.578125 28.109375,11.0273438 23.78125,11.09375 C19.5195312,11.1601562 16.0859375,14.6328125 16.0859375,18.90625 C16.0859375,21.359375 17.21875,23.546875 18.984375,24.9804688 C17.7460938,25.5546875 16.6054687,26.34375 15.609375,27.3398437 C13.4765625,29.4765625 12.265625,32.296875 12.1874205,35.3046875 C12.1835938,35.4804687 12.3242188,35.625 12.5,35.625 L14.6875,35.625 C14.8554687,35.625 14.9960938,35.4921875 15,35.3242187 C15.0742188,33.0585937 15.9921875,30.9375 17.6054688,29.328125 C19.2890625,27.6445312 21.5273438,26.71875 23.90625,26.71875 C26.2851562,26.71875 28.5234375,27.6445312 30.2070312,29.328125 C31.8164062,30.9375 32.734375,33.0585937 32.8125,35.3242187 C32.8164062,35.4921875 32.9570312,35.625 33.125,35.625 L35.3125,35.625 C35.4882812,35.625 35.6289062,35.4804687 35.6250795,35.3046875 C35.546875,32.296875 34.3359375,29.4765625 32.1953125,27.3398437 Z M23.90625,23.90625 C22.5703125,23.90625 21.3125,23.3867188 20.3710938,22.4414063 C19.4140625,21.484375 18.890625,20.2109375 18.90625,18.8554688 C18.9179688,17.5742188 19.4296875,16.3359375 20.3242188,15.4179688 C21.2617188,14.4570313 22.515625,13.921875 23.8554688,13.90625 C25.1796875,13.8945313 26.4648438,14.4101563 27.4101562,15.3359375 C28.3789062,16.2851563 28.9101562,17.5546875 28.9101562,18.90625 C28.9101562,20.2421875 28.390625,21.4960938 27.4453125,22.4414063 C26.5,23.3867188 25.2421875,23.90625 23.90625,23.90625 L23.90625,23.90625 Z M14.1210938,19.9375 C14.0859375,19.5976563 14.0664063,19.2539063 14.0664063,18.90625 C14.0664063,18.2851563 14.125,17.6796875 14.234375,17.0898438 C14.2617188,16.9492188 14.1875,16.8046875 14.0585938,16.7460938 C13.5273438,16.5078125 13.0390625,16.1796875 12.6171875,15.765625 C11.609375,14.78125 11.0664063,13.4492188 11.1054688,12.0390625 C11.140625,10.7851562 11.6445313,9.59375 12.5234375,8.6953125 C13.4882813,7.70703125 14.7851563,7.16796875 16.1640625,7.18359375 C17.4101563,7.1953125 18.6132812,7.67578125 19.5234375,8.52734375 C19.8320313,8.81640625 20.0976563,9.13671875 20.3203125,9.48046875 C20.3984375,9.6015625 20.5507812,9.65234375 20.6835938,9.60546875 C21.3710938,9.3671875 22.0976563,9.19921875 22.84375,9.12109375 C23.0625,9.09765625 23.1875,8.86328125 23.0898438,8.66796875 C21.8203125,6.15625 19.2265625,4.421875 16.2265625,4.375 C11.8945312,4.30859375 8.28515625,7.859375 8.28515625,12.1835938 C8.28515625,14.6367188 9.4140625,16.8242188 11.1835937,18.2578125 C9.94140625,18.8320312 8.796875,19.625 7.8046875,20.6171875 C5.6640625,22.7539063 4.453125,25.5742188 4.37492055,28.5859375 C4.37109375,28.7617188 4.51171875,28.90625 4.6875,28.90625 L6.87890625,28.90625 C7.046875,28.90625 7.1875,28.7734375 7.19140625,28.6054688 C7.265625,26.3398438 8.18359375,24.21875 9.796875,22.609375 C10.9453125,21.4609375 12.3515625,20.6640625 13.8867187,20.2773438 C14.0390625,20.2382813 14.140625,20.09375 14.1210937,19.9375 L14.1210938,19.9375 Z" id="Shape" fill="#486CE8"></path>
                </g>
            </g>
        </g>
    </g>
</svg>