<?xml version="1.0" encoding="UTF-8"?>
<svg width="40px" height="40px" viewBox="0 0 40 40" version="1.1" xmlns="http://www.w3.org/2000/svg" xmlns:xlink="http://www.w3.org/1999/xlink">
    <title>user</title>
    <g id="页面-1" stroke="none" stroke-width="1" fill="none" fill-rule="evenodd">
        <g id="人员选择" transform="translate(-89.000000, -417.000000)" fill-rule="nonzero">
            <g id="信息输入:50/表单Form:1/输入框:1/内容:无值" transform="translate(0.000000, 389.000000)">
                <g id="Group" transform="translate(0.000000, 0.000000)">
                    <g id="user" transform="translate(89.000000, 28.000000)">
                        <rect id="Rectangle" fill="#000000" opacity="0" x="0" y="0" width="40" height="40"></rect>
                        <path d="M33.5351563,29.828125 C32.796875,28.078125 31.734375,26.5078125 30.3867188,25.1601562 C29.0390625,23.8125 27.46875,22.7539062 25.71875,22.0117188 C25.703125,22.0039062 25.6875,22 25.671875,21.9921875 C28.1054688,20.234375 29.6875,17.3710938 29.6875,14.140625 C29.6875,8.7890625 25.3515625,4.453125 20,4.453125 C14.6484375,4.453125 10.3125,8.7890625 10.3125,14.140625 C10.3125,17.3710938 11.8945312,20.234375 14.328125,21.9960938 C14.3125,22.0039063 14.296875,22.0078125 14.28125,22.015625 C12.53125,22.7539062 10.9609375,23.8125 9.61328125,25.1640625 C8.265625,26.5117188 7.20703125,28.0820313 6.46484375,29.8320313 C5.73828125,31.5429688 5.3515625,33.359375 5.31242055,35.2265625 C5.30859375,35.4023438 5.44921875,35.546875 5.625,35.546875 L7.96875,35.546875 C8.140625,35.546875 8.27734375,35.4101562 8.28125,35.2421875 C8.359375,32.2265625 9.5703125,29.4023438 11.7109375,27.2617188 C13.9257813,25.046875 16.8671875,23.828125 20,23.828125 C23.1328125,23.828125 26.0742188,25.046875 28.2890625,27.2617188 C30.4296875,29.4023438 31.640625,32.2265625 31.71875,35.2421875 C31.7226563,35.4140625 31.859375,35.546875 32.03125,35.546875 L34.375,35.546875 C34.5507813,35.546875 34.6914063,35.4023438 34.6875795,35.2265625 C34.6484375,33.359375 34.2617188,31.5429688 33.5351563,29.828125 Z M20,20.859375 C18.2070312,20.859375 16.5195312,20.1601562 15.25,18.890625 C13.9804688,17.6210938 13.28125,15.9335937 13.28125,14.140625 C13.28125,12.3476562 13.9804688,10.6601562 15.25,9.390625 C16.5195312,8.12109375 18.2070312,7.421875 20,7.421875 C21.7929687,7.421875 23.4804688,8.12109375 24.75,9.390625 C26.0195313,10.6601562 26.71875,12.3476562 26.71875,14.140625 C26.71875,15.9335937 26.0195313,17.6210938 24.75,18.890625 C23.4804688,20.1601562 21.7929687,20.859375 20,20.859375 Z" id="Shape" fill="#486CE8"></path>
                    </g>
                </g>
            </g>
        </g>
    </g>
</svg>