<?xml version="1.0" encoding="UTF-8"?>
<svg width="56px" height="56px" viewBox="0 0 56 56" version="1.1" xmlns="http://www.w3.org/2000/svg" xmlns:xlink="http://www.w3.org/1999/xlink">
    <title>Group1</title>
    <defs>
        <path d="M22.05,0 L1.05,0 C0.46921875,0 0,0.46921875 0,1.05 L0,28.35 C0,28.9307813 0.46921875,29.4 1.05,29.4 L22.05,29.4 C22.6307813,29.4 23.1,28.9307813 23.1,28.35 L23.1,1.05 C23.1,0.46921875 22.6307813,0 22.05,0 Z M13.51875,2.3625 L16.66875,2.3625 L16.66875,9.24984375 L15.1429688,8.1375 L13.51875,9.2990625 L13.51875,2.3625 Z M20.7375,27.0375 L2.3625,27.0375 L2.3625,2.3625 L11.55,2.3625 L11.55,12.1045312 C11.55,12.2128125 11.5828125,12.3210937 11.6484375,12.4096875 C11.8157813,12.6459375 12.1439063,12.7017187 12.3801563,12.5310937 L15.1298437,10.565625 L17.8007812,12.5146875 C17.889375,12.5803125 17.9976562,12.6164062 18.1092187,12.6164062 C18.3979687,12.6164062 18.6342187,12.3801562 18.6342187,12.0914062 L18.6342187,2.3625 L20.7342187,2.3625 L20.7342187,27.0375 L20.7375,27.0375 Z" id="path-1"></path>
    </defs>
    <g id="页面-1" stroke="none" stroke-width="1" fill="none" fill-rule="evenodd">
        <g id="待办1" transform="translate(-28.000000, -377.000000)">
            <g id="Group1" transform="translate(28.000000, 377.000000)">
                <rect id="矩形" fill="#5FA9EF" x="0" y="0" width="56" height="56" rx="12.1333333"></rect>
                <g id="book" transform="translate(11.200000, 11.200000)">
                    <rect id="矩形" fill="#000000" fill-rule="nonzero" opacity="0" x="0" y="0" width="33.6" height="33.6"></rect>
                    <g id="矩形" transform="translate(5.250000, 2.100000)">
                        <mask id="mask-2" fill="white">
                            <use xlink:href="#path-1"></use>
                        </mask>
                        <use id="蒙版" fill="#FFFFFF" fill-rule="nonzero" xlink:href="#path-1"></use>
                    </g>
                </g>
            </g>
        </g>
    </g>
</svg>