<?xml version="1.0" encoding="UTF-8"?>
<svg width="56px" height="56px" viewBox="0 0 56 56" version="1.1" xmlns="http://www.w3.org/2000/svg" xmlns:xlink="http://www.w3.org/1999/xlink">
    <title>Group 2</title>
    <g id="页面-1" stroke="none" stroke-width="1" fill="none" fill-rule="evenodd">
        <g id="待办1" transform="translate(-28.000000, -1041.000000)">
            <g id="Group-2" transform="translate(28.000000, 1041.000000)">
                <rect id="矩形" fill="#ED5A48" x="0" y="0" width="56" height="56" rx="12.1333333"></rect>
                <g id="file-done" transform="translate(10.500000, 11.200000)" fill-rule="nonzero">
                    <rect id="矩形" fill="#000000" opacity="0" x="0" y="0" width="33.6" height="33.6"></rect>
                    <path d="M22.575,10.2375 L22.575,8.6625 C22.575,8.518125 22.456875,8.4 22.3125,8.4 L9.7125,8.4 C9.568125,8.4 9.45,8.518125 9.45,8.6625 L9.45,10.2375 C9.45,10.381875 9.568125,10.5 9.7125,10.5 L22.3125,10.5 C22.456875,10.5 22.575,10.381875 22.575,10.2375 Z M9.7125,13.125 C9.568125,13.125 9.45,13.243125 9.45,13.3875 L9.45,14.9625 C9.45,15.106875 9.568125,15.225 9.7125,15.225 L15.75,15.225 C15.894375,15.225 16.0125,15.106875 16.0125,14.9625 L16.0125,13.3875 C16.0125,13.243125 15.894375,13.125 15.75,13.125 L9.7125,13.125 Z M22.05,16.93125 C18.1354687,16.93125 14.9625,20.1042187 14.9625,24.01875 C14.9625,27.9332812 18.1354687,31.10625 22.05,31.10625 C25.9645312,31.10625 29.1375,27.9332812 29.1375,24.01875 C29.1375,20.1042187 25.9645312,16.93125 22.05,16.93125 Z M25.5773437,27.5460937 C24.635625,28.4878125 23.3821875,29.00625 22.05,29.00625 C20.7178125,29.00625 19.464375,28.4878125 18.5226562,27.5460937 C17.5809375,26.604375 17.0625,25.3509375 17.0625,24.01875 C17.0625,22.6865625 17.5809375,21.433125 18.5226562,20.4914063 C19.464375,19.5496875 20.7178125,19.03125 22.05,19.03125 C23.3821875,19.03125 24.635625,19.5496875 25.5773437,20.4914063 C26.5190625,21.433125 27.0375,22.6865625 27.0375,24.01875 C27.0375,25.3509375 26.5190625,26.604375 25.5773437,27.5460937 Z M14.4375,27.95625 L6.825,27.95625 L6.825,4.85625 L25.2,4.85625 L25.2,16.14375 C25.2,16.288125 25.318125,16.40625 25.4625,16.40625 L27.3,16.40625 C27.444375,16.40625 27.5625,16.288125 27.5625,16.14375 L27.5625,3.54375 C27.5625,2.96296875 27.0932813,2.49375 26.5125,2.49375 L5.5125,2.49375 C4.93171875,2.49375 4.4625,2.96296875 4.4625,3.54375 L4.4625,29.26875 C4.4625,29.8495312 4.93171875,30.31875 5.5125,30.31875 L14.4375,30.31875 C14.581875,30.31875 14.7,30.200625 14.7,30.05625 L14.7,28.21875 C14.7,28.074375 14.581875,27.95625 14.4375,27.95625 Z" id="形状" fill="#FFFFFF"></path>
                    <path d="M24.9703125,21.525 L23.5167187,21.525 C23.4314062,21.525 23.3526562,21.564375 23.3034375,21.6332812 L21.2198437,24.5142187 L20.461875,23.4675 C20.4126562,23.3985937 20.3339062,23.3592187 20.2485937,23.3592187 L18.8015625,23.3592187 C18.5882812,23.3592187 18.4635937,23.6020312 18.5882812,23.7759375 L21.0098437,27.1260937 C21.1148437,27.2704687 21.328125,27.2704687 21.433125,27.1260937 L25.1803125,21.9417187 C25.3082812,21.7678125 25.1835937,21.525 24.9703125,21.525 Z" id="路径" fill="#FFFFFF"></path>
                </g>
            </g>
        </g>
    </g>
</svg>