<?xml version="1.0" encoding="UTF-8"?>
<svg width="56px" height="56px" viewBox="0 0 56 56" version="1.1" xmlns="http://www.w3.org/2000/svg" xmlns:xlink="http://www.w3.org/1999/xlink">
    <title>Group 3</title>
    <g id="页面-1" stroke="none" stroke-width="1" fill="none" fill-rule="evenodd">
        <g id="待办1" transform="translate(-28.000000, -1385.000000)">
            <g id="Group-3" transform="translate(28.000000, 1385.000000)">
                <rect id="矩形" fill="#F7AD32" x="0" y="0" width="56" height="56" rx="9.33333333"></rect>
                <g id="Group-5" transform="translate(7.000000, 7.000000)" fill-rule="nonzero">
                    <rect id="矩形" fill="#000000" opacity="0" x="0" y="3.97903932e-13" width="42" height="41.5767419"></rect>
                    <path d="M33.140625,3.08577381 C33.8666016,3.08577381 34.453125,3.66638651 34.453125,4.38504699 L34.453125,4.38504699 L34.453125,19.9763252 C34.453125,20.1549753 34.3054688,20.3011435 34.125,20.3011435 L34.125,20.3011435 L31.828125,20.3011435 C31.6476563,20.3011435 31.5,20.1549753 31.5,19.9763252 L31.5,19.9763252 L31.5,6.00913847 L8.53125,6.00913847 L8.53125,34.5931485 L17.71875,34.5931485 C17.8992188,34.5931485 18.046875,34.7393167 18.046875,34.9179668 L18.046875,34.9179668 L18.046875,37.1916949 C18.046875,37.3703449 17.8992188,37.5165132 17.71875,37.5165132 L17.71875,37.5165132 L6.890625,37.5165132 C6.16464844,37.5165132 5.578125,36.9359005 5.578125,36.21724 L5.578125,36.21724 L5.578125,4.38504699 C5.578125,3.66638651 6.16464844,3.08577381 6.890625,3.08577381 L6.890625,3.08577381 Z M31.4549577,26.3364818 C31.4549577,26.0616771 31.7675953,25.9058178 31.9827875,26.0780834 L31.9827875,26.0780834 L37.744252,30.6718334 C37.9107214,30.8030834 37.9107214,31.0573803 37.744252,31.1886303 L37.744252,31.1886303 L31.9827875,35.7823803 C31.7716556,35.9546459 31.4549577,35.7987865 31.4549577,35.5239818 L31.4549577,35.5239818 L31.4549577,32.4067943 L21.304386,32.4067943 C21.1257359,32.4067943 20.9795677,32.2591381 20.9795677,32.0786693 L20.9795677,32.0786693 L20.9795677,29.7817943 C20.9795677,29.6013256 21.1257359,29.4536693 21.304386,29.4536693 L21.304386,29.4536693 L31.4549577,29.4536693 Z M19.6875,22.0876441 C19.8679688,22.0876441 20.015625,22.2338124 20.015625,22.4124624 L20.015625,22.4124624 L20.015625,24.3613722 C20.015625,24.5400223 19.8679688,24.6861905 19.6875,24.6861905 L19.6875,24.6861905 L12.140625,24.6861905 C11.9601563,24.6861905 11.8125,24.5400223 11.8125,24.3613722 L11.8125,24.3613722 L11.8125,22.4124624 C11.8125,22.2338124 11.9601563,22.0876441 12.140625,22.0876441 L12.140625,22.0876441 Z M27.890625,16.2409148 C28.0710938,16.2409148 28.21875,16.387083 28.21875,16.5657331 L28.21875,16.5657331 L28.21875,18.5146429 C28.21875,18.6932929 28.0710938,18.8394612 27.890625,18.8394612 L27.890625,18.8394612 L12.140625,18.8394612 C11.9601563,18.8394612 11.8125,18.6932929 11.8125,18.5146429 L11.8125,18.5146429 L11.8125,16.5657331 C11.8125,16.387083 11.9601563,16.2409148 12.140625,16.2409148 L12.140625,16.2409148 Z M27.890625,10.3941855 C28.0710938,10.3941855 28.21875,10.5403537 28.21875,10.7190038 L28.21875,10.7190038 L28.21875,12.6679135 C28.21875,12.8465636 28.0710938,12.9927318 27.890625,12.9927318 L27.890625,12.9927318 L12.140625,12.9927318 C11.9601563,12.9927318 11.8125,12.8465636 11.8125,12.6679135 L11.8125,12.6679135 L11.8125,10.7190038 C11.8125,10.5403537 11.9601563,10.3941855 12.140625,10.3941855 L12.140625,10.3941855 Z" id="Combined-Shape" fill="#FFFFFF"></path>
                </g>
            </g>
        </g>
    </g>
</svg>