<?xml version="1.0" encoding="UTF-8"?>
<svg width="56px" height="56px" viewBox="0 0 56 56" version="1.1" xmlns="http://www.w3.org/2000/svg" xmlns:xlink="http://www.w3.org/1999/xlink">
    <title>Group 4</title>
    <g id="页面-1" stroke="none" stroke-width="1" fill="none" fill-rule="evenodd">
        <g id="待办1" transform="translate(-28.000000, -721.000000)">
            <g id="Group-4" transform="translate(28.000000, 721.000000)">
                <rect id="矩形" fill="#4896F8" x="0" y="0" width="56" height="56" rx="9.1"></rect>
                <g id="solution" transform="translate(11.200000, 11.200000)" fill-rule="nonzero">
                    <rect id="矩形" fill="#000000" opacity="0" x="0" y="0" width="33.6" height="33.6"></rect>
                    <path d="M22.575,16.8875 C22.575,16.743125 22.456875,16.625 22.3125,16.625 L9.7125,16.625 C9.568125,16.625 9.45,16.743125 9.45,16.8875 L9.45,18.4625 C9.45,18.606875 9.568125,18.725 9.7125,18.725 L22.3125,18.725 C22.456875,18.725 22.575,18.606875 22.575,18.4625 L22.575,16.8875 Z M22.3125,21.35 L9.7125,21.35 C9.568125,21.35 9.45,21.468125 9.45,21.6125 L9.45,23.1875 C9.45,23.331875 9.568125,23.45 9.7125,23.45 L22.3125,23.45 C22.456875,23.45 22.575,23.331875 22.575,23.1875 L22.575,21.6125 C22.575,21.468125 22.456875,21.35 22.3125,21.35 Z M22.5470603,27.95625 L6.825,27.95625 L6.825,4.85625 L25.2,4.85625 L25.2,16.14375 C25.2,16.288125 25.318125,16.40625 25.4625,16.40625 L27.3,16.40625 C27.444375,16.40625 27.5625,16.288125 27.5625,16.14375 L27.5625,3.54375 C27.5625,2.96296875 27.0932813,2.49375 26.5125,2.49375 L5.5125,2.49375 C4.93171875,2.49375 4.4625,2.96296875 4.4625,3.54375 L4.4625,29.26875 C4.4625,29.8495313 4.93171875,30.31875 5.5125,30.31875 L22.5470603,30.31875 C22.6914353,30.31875 22.8095603,30.200625 22.8095603,30.05625 L22.8095603,28.21875 C22.8095603,28.074375 22.6914353,27.95625 22.5470603,27.95625 Z M10.3401897,4.85625 L25.2,4.85625 L25.2,27.95625 L6.825,27.95625 L6.825,16.66875 C6.825,16.524375 6.706875,16.40625 6.5625,16.40625 L4.725,16.40625 C4.580625,16.40625 4.4625,16.524375 4.4625,16.66875 L4.4625,29.26875 C4.4625,29.8495313 4.93171875,30.31875 5.5125,30.31875 L26.5125,30.31875 C27.0932813,30.31875 27.5625,29.8495313 27.5625,29.26875 L27.5625,3.54375 C27.5625,2.96296875 27.0932813,2.49375 26.5125,2.49375 L10.3401897,2.49375 C10.1958147,2.49375 10.0776897,2.611875 10.0776897,2.75625 L10.0776897,4.59375 C10.0776897,4.738125 10.1958147,4.85625 10.3401897,4.85625 Z" id="形状" fill="#FFFFFF"></path>
                    <path d="M15.75,10.8284108 L9.7125,10.8284108 C9.568125,10.8284108 9.45,10.9465358 9.45,11.0909108 L9.45,13.7375 C9.45,13.881875 9.568125,14 9.7125,14 L15.75,14 C15.894375,14 16.0125,13.881875 16.0125,13.7375 L16.0125,11.0909108 C16.0125,10.9465358 15.894375,10.8284108 15.75,10.8284108 Z" id="路径" fill="#FFFFFF"></path>
                </g>
            </g>
        </g>
    </g>
</svg>