<?xml version="1.0" encoding="UTF-8"?>
<svg width="12px" height="12px" viewBox="0 0 12 12" version="1.1" xmlns="http://www.w3.org/2000/svg" xmlns:xlink="http://www.w3.org/1999/xlink">
    <title>链接</title>
    <g id="页面-1" stroke="none" stroke-width="1" fill="none" fill-rule="evenodd">
        <g id="列表-导入数据-文件上传完成" transform="translate(-443.000000, -470.000000)" fill-rule="nonzero">
            <g id="编组-33" transform="translate(411.000000, 200.000000)">
                <g id="编组-21" transform="translate(32.000000, 246.000000)">
                    <g id="编组-18" transform="translate(0.000000, 21.000000)">
                        <g id="链接" transform="translate(0.000000, 3.000000)">
                            <rect id="矩形" fill="#000000" opacity="0" x="0" y="0" width="12" height="12"></rect>
                            <path d="M11.1405,1.071 L10.99425,0.924 C10.18275,0.1125 8.86725,0.1125 8.05575,0.924 L4.0155,4.965 C3.20325,5.7765 3.20325,7.09125 4.0155,7.9035 L4.1625,8.04975 C4.18725,8.0745 4.212,8.09775 4.23825,8.121 L5.346,7.0125 C5.316,6.99525 5.28825,6.9735 5.26425,6.948 L5.1165,6.801 C4.91475,6.5985 4.91475,6.26925 5.1165,6.06675 L5.26425,5.919 L6.219,4.965 L7.641,3.543 L9.1575,2.0265 C9.36075,1.824 9.6885,1.824 9.89175,2.0265 L10.03875,2.1735 C10.242,2.376 10.242,2.70525 10.03875,2.90775 L8.856,4.0905 C9.27,4.5855 9.43425,5.211 9.3525,5.7975 L11.1405,4.0095 C11.95275,3.198 11.95275,1.8825 11.1405,1.071 Z M8.2035,4.0095 L8.055,3.8625 C8.031,3.8385 8.0055,3.8145 7.98,3.792 L6.873,4.89825 C6.90075,4.91775 6.92775,4.9395 6.95325,4.965 L7.0995,5.112 C7.30275,5.31375 7.30275,5.64375 7.0995,5.84625 L6.65925,6.28725 L5.99925,6.948 L4.57725,8.37 L3.06,9.8865 C2.8575,10.08975 2.5275,10.08975 2.32575,9.8865 L2.17875,9.74025 C1.97625,9.53775 1.97625,9.20775 2.17875,9.00525 L3.4305,7.75425 C3.009,7.29075 2.8125,6.70275 2.84625,6.13275 L1.07625,7.9035 C0.264,8.71425 0.264,10.0305 1.07625,10.84125 L1.22325,10.9875 C2.03475,11.799 3.35025,11.799 4.16175,10.9875 L8.20275,6.94725 C9.0135,6.1365 9.0135,4.821 8.2035,4.0095 Z" id="形状" fill="#57A3FD"></path>
                        </g>
                    </g>
                </g>
            </g>
        </g>
    </g>
</svg>