<?xml version="1.0" encoding="UTF-8"?>
<svg width="354px" height="262px" viewBox="0 0 354 262" version="1.1" xmlns="http://www.w3.org/2000/svg" xmlns:xlink="http://www.w3.org/1999/xlink">
    <title>数据加载中</title>
    <defs>
        <linearGradient x1="26.7059124%" y1="44.2312676%" x2="32.5086028%" y2="52.2590489%" id="linearGradient-1">
            <stop stop-color="#85A8C5" offset="0%"></stop>
            <stop stop-color="#FFFFFF" stop-opacity="0" offset="100%"></stop>
        </linearGradient>
        <linearGradient x1="50%" y1="0%" x2="50%" y2="100%" id="linearGradient-2">
            <stop stop-color="#C2D4FA" offset="0%"></stop>
            <stop stop-color="#8AAFFE" offset="100%"></stop>
        </linearGradient>
        <linearGradient x1="50%" y1="0%" x2="50%" y2="100%" id="linearGradient-3">
            <stop stop-color="#A7C2FC" offset="0%"></stop>
            <stop stop-color="#8AAFFE" offset="100%"></stop>
        </linearGradient>
        <linearGradient x1="50%" y1="0%" x2="50%" y2="100%" id="linearGradient-4">
            <stop stop-color="#B7D3FE" offset="0%"></stop>
            <stop stop-color="#8EBAFD" offset="44.6573072%"></stop>
            <stop stop-color="#5C9CFC" offset="100%"></stop>
        </linearGradient>
        <linearGradient x1="50%" y1="0%" x2="50%" y2="100%" id="linearGradient-5">
            <stop stop-color="#B6D3FE" offset="0%"></stop>
            <stop stop-color="#5D9DFC" offset="100%"></stop>
        </linearGradient>
        <linearGradient x1="2.27373675e-11%" y1="50%" x2="50%" y2="64.8760331%" id="linearGradient-6">
            <stop stop-color="#83B3FD" offset="0%"></stop>
            <stop stop-color="#589AFC" offset="100%"></stop>
        </linearGradient>
        <linearGradient x1="50%" y1="0%" x2="50%" y2="68.6910888%" id="linearGradient-7">
            <stop stop-color="#C0D2FA" offset="0%"></stop>
            <stop stop-color="#FFFFFF" stop-opacity="0" offset="100%"></stop>
        </linearGradient>
    </defs>
    <g id="数据加载中" stroke="none" stroke-width="1" fill="none" fill-rule="evenodd">
        <g id="编组" transform="translate(36.000000, 34.000000)">
            <polygon id="路径-8" fill="url(#linearGradient-1)" opacity="0.218182231" points="59.9958706 176.484456 187.130698 162.214797 403.227142 247.284175 203.79765 275.810861"></polygon>
            <path d="M218.989976,56.775179 L187.57617,56.775179 L187.37726,165.59911 C184.473286,176.501705 180.033623,181.681954 174.05827,181.139857 C173.963289,181.174738 138.300575,181.174738 67.0701282,181.139857 L66.2377088,19.9203943 C67.3545743,6.64013143 75.2260308,1.30739863e-12 89.8520783,1.30739863e-12 C104.478126,1.30739863e-12 142.459983,1.30739863e-12 203.79765,1.30739863e-12 C213.925867,0.569213873 218.989976,7.2093453 218.989976,19.9203943 C218.989976,32.6314433 218.989976,44.9163715 218.989976,56.775179 Z" id="路径-7" fill="url(#linearGradient-2)"></path>
            <path d="M203.79765,1.63424829e-13 C212.756526,1.6177911e-13 220.019129,7.26260385 220.019129,16.2214797 L220.019129,56.775179 L220.019129,56.775179 L187.57617,56.775179 L187.57617,16.2214797 C187.57617,7.26260385 194.838774,1.72175975e-13 203.79765,1.63424829e-13 Z" id="矩形备份-5" fill="#8CB0FE"></path>
            <path d="M50.0032473,143.289737 L177.084487,143.289737 L177.084487,181.139857 L64.872937,181.139857 C56.6606341,181.139857 50.0032473,174.48247 50.0032473,166.270167 L50.0032473,143.289737 L50.0032473,143.289737 Z" id="矩形备份-6" fill="#C0D3FA"></path>
            <path d="M157.391319,91.2276716 L187.130698,91.2276716 L187.130698,166.92791 C187.130698,175.140213 180.473311,181.7976 172.261008,181.7976 C164.048706,181.7976 157.391319,175.140213 157.391319,166.92791 L157.391319,91.2276716 L157.391319,91.2276716 Z" id="矩形备份-6" fill="url(#linearGradient-3)"></path>
            <circle id="椭圆形" fill="#D8D8D8" opacity="0.584347747" cx="175.056802" cy="123.688783" r="33.1188544"></circle>
            <circle id="椭圆形" stroke="url(#linearGradient-4)" stroke-width="8.11073986" cx="175.056802" cy="123.688783" r="29.0634845"></circle>
            <rect id="矩形" fill="url(#linearGradient-5)" transform="translate(215.404971, 158.209922) rotate(-52.000000) translate(-215.404971, -158.209922) " x="207.294231" y="146.719707" width="16.2214797" height="22.9804296"></rect>
            <rect id="矩形" fill="url(#linearGradient-6)" transform="translate(203.444391, 148.696897) rotate(40.000000) translate(-203.444391, -148.696897) " x="196.009547" y="144.641527" width="14.8696897" height="8.11073986"></rect>
            <path d="M157.533233,118.957394 C157.533233,118.957394 161.030569,104.825124 173.711645,106.83553" id="路径-9" stroke="#FFFFFF" stroke-width="4.05536993" stroke-linecap="round"></path>
            <rect id="矩形" fill="#FFFFFF" x="85.1627685" y="31.0911695" width="81.1073986" height="8.11073986" rx="4.05536993"></rect>
            <rect id="矩形" fill="#FFFFFF" x="85.1627685" y="52.7198091" width="81.1073986" height="8.11073986" rx="4.05536993"></rect>
            <rect id="矩形" fill="#FFFFFF" x="85.1627685" y="74.3484487" width="81.1073986" height="8.11073986" rx="4.05536993"></rect>
            <rect id="矩形" fill="#FFFFFF" x="85.1627685" y="95.9770883" width="51.3680191" height="8.11073986" rx="4.05536993"></rect>
            <circle id="椭圆形" fill="#C0D2FA" cx="241.970406" cy="89.2181384" r="6.75894988"></circle>
            <circle id="椭圆形备份" fill="#C0D2FA" cx="259.543675" cy="12.1661098" r="5.4071599"></circle>
            <circle id="椭圆形备份-2" fill="#C0D2FA" cx="13.5178998" cy="48.6644391" r="13.5178998"></circle>
            <path d="M275.765155,48.6644391 C278.751447,48.6644391 281.172315,51.0853071 281.172315,54.071599 L281.172315,143.289737 L281.172315,143.289737 L270.357995,143.289737 L270.357995,54.071599 C270.357995,51.0853071 272.778863,48.6644391 275.765155,48.6644391 Z" id="矩形" fill="url(#linearGradient-7)"></path>
            <path d="M17.5732697,114.902148 C20.5595616,114.902148 22.9804296,117.323016 22.9804296,120.309308 L22.9804296,209.527446 L22.9804296,209.527446 L12.1661098,209.527446 L12.1661098,120.309308 C12.1661098,117.323016 14.5869777,114.902148 17.5732697,114.902148 Z" id="矩形备份-7" fill="url(#linearGradient-7)"></path>
        </g>
    </g>
</svg>