<svg id="图层_1" data-name="图层 1" xmlns="http://www.w3.org/2000/svg" xmlns:xlink="http://www.w3.org/1999/xlink" viewBox="0 0 354 262"><defs><style>.cls-1,.cls-11,.cls-12,.cls-2,.cls-3,.cls-4{fill-rule:evenodd;}.cls-1{fill:url(#未命名的渐变);}.cls-2{fill:#8cb0fe;}.cls-3{fill:#c0d3fa;}.cls-4{fill:url(#未命名的渐变_2);}.cls-5{fill:#d8d8d8;opacity:0.58;isolation:isolate;}.cls-6,.cls-9{fill:none;}.cls-6{stroke-width:8.11px;stroke:url(#未命名的渐变_3);}.cls-7{fill:url(#未命名的渐变_4);}.cls-8{fill:url(#未命名的渐变_5);}.cls-9{stroke:#fff;stroke-linecap:round;stroke-width:4.06px;}.cls-10{fill:#c0d2fa;}.cls-11{fill:url(#未命名的渐变_6);}.cls-12{fill:url(#未命名的渐变_7);}.cls-13,.cls-15{fill:#fff;}.cls-14{filter:url(#filter-8);}.cls-15{font-size:20px;font-family:SourceHanSansCN-Medium-GBpc-EUC-H, Source Han Sans CN;}</style><linearGradient id="未命名的渐变" x1="-126.66" y1="526.54" x2="-126.66" y2="525.54" gradientTransform="matrix(152.75, 0, 0, -181.18, 19527.03, 95427.92)" gradientUnits="userSpaceOnUse"><stop offset="0" stop-color="#c2d4fa"/><stop offset="1" stop-color="#8aaffe"/></linearGradient><linearGradient id="未命名的渐变_2" x1="-123.2" y1="525.09" x2="-123.2" y2="524.09" gradientTransform="matrix(29.74, 0, 0, -90.57, 3872.53, 47677.89)" gradientUnits="userSpaceOnUse"><stop offset="0" stop-color="#a7c2fc"/><stop offset="1" stop-color="#8aaffe"/></linearGradient><linearGradient id="未命名的渐变_3" x1="-125.3" y1="523.46" x2="-125.3" y2="522.46" gradientTransform="matrix(58.13, 0, 0, -58.13, 7494.74, 30551.4)" gradientUnits="userSpaceOnUse"><stop offset="0" stop-color="#b7d3fe"/><stop offset="0.45" stop-color="#8ebafd"/><stop offset="1" stop-color="#5c9cfc"/></linearGradient><linearGradient id="未命名的渐变_4" x1="-135.47" y1="516.54" x2="-135.47" y2="515.54" gradientTransform="matrix(16.22, 0, 0, -22.98, 2449.37, 12046.73)" gradientUnits="userSpaceOnUse"><stop offset="0" stop-color="#b6d3fe"/><stop offset="1" stop-color="#5d9dfc"/></linearGradient><linearGradient id="未命名的渐变_5" x1="-109.95" y1="512.85" x2="-109.45" y2="512.7" gradientTransform="matrix(0, 14.87, 8.11, 0, -3918.51, 1806.57)" gradientUnits="userSpaceOnUse"><stop offset="0" stop-color="#83b3fd"/><stop offset="1" stop-color="#589afc"/></linearGradient><linearGradient id="未命名的渐变_6" x1="-115.66" y1="525.21" x2="-115.66" y2="524.52" gradientTransform="matrix(10.81, 0, 0, -94.63, 1563.09, 49776.56)" gradientUnits="userSpaceOnUse"><stop offset="0" stop-color="#c0d2fa"/><stop offset="1" stop-color="#fff" stop-opacity="0"/></linearGradient><linearGradient id="未命名的渐变_7" x1="-115.66" y1="525.21" x2="-115.66" y2="524.52" gradientTransform="matrix(10.81, 0, 0, -94.63, 1304.9, 49842.8)" xlink:href="#未命名的渐变_6"/><filter id="filter-8" x="-4" y="-3.1" width="108" height="106.2" name="filter-8"><feGaussianBlur result="shadowBlurInner1" stdDeviation="1.5" in="SourceAlpha"/><feOffset result="shadowOffsetInner1" dy="1" in="shadowBlurInner1"/><feComposite result="shadowInnerInner1" operator="arithmetic" k2="-1" k3="1" in="shadowOffsetInner1" in2="SourceAlpha"/><feColorMatrix values="0 0 0 0 0 0 0 0 0 0 0 0 0 0 0 0 0 0 0.26 0" in="shadowInnerInner1"/></filter></defs><title>画板 1</title><g id="无权限"><g id="编组"><path id="路径-7" class="cls-1" d="M255.49,86.51H224.07l-.19,108.83q-4.37,16.35-13.32,15.54-.15,0-107,0l-.83-161.22q1.67-19.92,23.61-19.92h114q15.18.86,15.19,19.92Z"/><path id="矩形备份-5" class="cls-2" d="M240.3,29.74A16.22,16.22,0,0,1,256.52,46V86.51H224.07V46A16.23,16.23,0,0,1,240.3,29.74Z"/><path id="矩形备份-6" class="cls-3" d="M86.5,173H213.58v37.85H101.37A14.87,14.87,0,0,1,86.5,196V173Z"/><path class="cls-4" d="M193.89,121h29.74v75.7a14.87,14.87,0,0,1-29.74,0V121Z"/><circle id="椭圆形" class="cls-5" cx="211.56" cy="153.43" r="33.12"/><circle class="cls-6" cx="211.56" cy="153.43" r="29.06"/><rect id="矩形" class="cls-7" x="243.79" y="176.46" width="16.22" height="22.98" transform="translate(-51.29 270.74) rotate(-52)"/><rect class="cls-8" x="235.89" y="171" width="8.11" height="14.87" transform="translate(-50.98 247.55) rotate(-50)"/><path id="路径-9" class="cls-9" d="M194,148.7s3.5-14.14,16.18-12.13"/><circle class="cls-10" cx="278.47" cy="118.96" r="6.76"/><circle id="椭圆形备份" class="cls-10" cx="296.04" cy="41.91" r="5.41"/><circle id="椭圆形备份-2" class="cls-10" cx="50.02" cy="78.4" r="13.52"/><path class="cls-11" d="M312.26,78.4a5.41,5.41,0,0,1,5.41,5.41V173H306.86V83.81A5.41,5.41,0,0,1,312.26,78.4Z"/><path id="矩形备份-7" class="cls-12" d="M54.07,144.64a5.41,5.41,0,0,1,5.41,5.41v89.22H48.66V150.05A5.41,5.41,0,0,1,54.07,144.64Z"/></g><g id="suozi"><g id="形状"><path id="path-7" class="cls-13" d="M184.67,99.4H151.5V90.21a11.5,11.5,0,0,1,23-.3V99.4s6.67,0,6.67,0,0-9.39,0-9.49a18.17,18.17,0,0,0-36.33.3V99.4h-3.5a3.35,3.35,0,0,0-3.33,3.35v30.91a3.34,3.34,0,0,0,3.33,3.34h43.34a3.34,3.34,0,0,0,3.33-3.34V102.75A3.35,3.35,0,0,0,184.67,99.4Zm-19,21.39a.37.37,0,0,0-.34.34v3.17c0,3.18-1,3.68-2.33,3.68s-2.33-.34-2.33-3.68V121a.37.37,0,0,0-.34-.34,3.87,3.87,0,0,1-1.66-3.34,4.41,4.41,0,0,1,4.33-4.34,4.31,4.31,0,0,1,4.33,4.34,4,4,0,0,1-1.66,3.51Z"/><g class="cls-14"><path d="M184.67,99.4H151.5V90.21a11.5,11.5,0,0,1,23-.3V99.4s6.67,0,6.67,0,0-9.39,0-9.49a18.17,18.17,0,0,0-36.33.3V99.4h-3.5a3.35,3.35,0,0,0-3.33,3.35v30.91a3.34,3.34,0,0,0,3.33,3.34h43.34a3.34,3.34,0,0,0,3.33-3.34V102.75A3.35,3.35,0,0,0,184.67,99.4Zm-19,21.39a.37.37,0,0,0-.34.34v3.17c0,3.18-1,3.68-2.33,3.68s-2.33-.34-2.33-3.68V121a.37.37,0,0,0-.34-.34,3.87,3.87,0,0,1-1.66-3.34,4.41,4.41,0,0,1,4.33-4.34,4.31,4.31,0,0,1,4.33,4.34,4,4,0,0,1-1.66,3.51Z"/></g></g></g></g><text class="cls-15" transform="translate(138 243.31)">暂无权限</text></svg>