<?xml version="1.0" encoding="UTF-8"?>
<svg width="354px" height="262px" viewBox="0 0 354 262" version="1.1" xmlns="http://www.w3.org/2000/svg" xmlns:xlink="http://www.w3.org/1999/xlink">
    <title>无权限</title>
    <defs>
        <linearGradient x1="50%" y1="0%" x2="50%" y2="100%" id="linearGradient-1">
            <stop stop-color="#C2D4FA" offset="0%"></stop>
            <stop stop-color="#8AAFFE" offset="100%"></stop>
        </linearGradient>
        <linearGradient x1="50%" y1="0%" x2="50%" y2="100%" id="linearGradient-2">
            <stop stop-color="#A7C2FC" offset="0%"></stop>
            <stop stop-color="#8AAFFE" offset="100%"></stop>
        </linearGradient>
        <linearGradient x1="50%" y1="0%" x2="50%" y2="100%" id="linearGradient-3">
            <stop stop-color="#B7D3FE" offset="0%"></stop>
            <stop stop-color="#8EBAFD" offset="44.6573072%"></stop>
            <stop stop-color="#5C9CFC" offset="100%"></stop>
        </linearGradient>
        <linearGradient x1="50%" y1="0%" x2="50%" y2="100%" id="linearGradient-4">
            <stop stop-color="#B6D3FE" offset="0%"></stop>
            <stop stop-color="#5D9DFC" offset="100%"></stop>
        </linearGradient>
        <linearGradient x1="2.27373675e-11%" y1="50%" x2="50%" y2="64.8760331%" id="linearGradient-5">
            <stop stop-color="#83B3FD" offset="0%"></stop>
            <stop stop-color="#589AFC" offset="100%"></stop>
        </linearGradient>
        <linearGradient x1="50%" y1="0%" x2="50%" y2="68.6910888%" id="linearGradient-6">
            <stop stop-color="#C0D2FA" offset="0%"></stop>
            <stop stop-color="#FFFFFF" stop-opacity="0" offset="100%"></stop>
        </linearGradient>
        <path d="M46.6666032,27.4035943 L13.5000667,27.4035943 L13.5000667,18.2133291 C13.5000667,11.8637955 18.6667145,6.68378915 25.0000366,6.68378915 C31.2311632,6.68378915 36.3330339,11.6979022 36.4960608,17.9068846 C36.4987345,18.008717 36.5000798,27.3011359 36.5000798,27.4035943 C36.5383297,27.3886618 43.166727,27.4035943 43.166727,27.4035943 C43.2434822,27.4035943 43.165918,18.014021 43.1643064,17.9146096 C43.0039875,8.02548057 34.9005547,0 25.0000366,0 C15,0 6.83334627,8.18764538 6.83334627,18.2133291 L6.83334627,27.4036677 L3.33332357,27.4036677 C1.5,27.4036677 0,28.9075239 0,30.7455623 L0,61.6581789 C0,63.4961438 1.5,65 3.33332357,65 L46.6666032,65 C48.5,65 50,63.4961438 50,61.6581789 L50,30.7454888 C50,28.9074505 48.5,27.4035943 46.6666032,27.4035943 Z M27.6666369,48.7917636 C27.500011,48.7917636 27.3333118,48.9588914 27.3333118,49.1259457 L27.3333118,52.3007859 C27.3333118,55.4755527 26.3333368,55.9768626 24.9999634,55.9768626 C23.66659,55.9768626 22.6666149,55.6426805 22.6666149,52.3007859 L22.6666149,48.9588914 C22.6666149,48.7917636 22.499989,48.6246358 22.3333631,48.6246358 C21.3333148,47.9562716 20.6666647,46.7866709 20.6666647,45.2828147 C20.6666647,42.9434664 22.6666149,40.9383003 24.9999634,40.9383003 C27.3333118,40.9383003 29.3333353,42.7763387 29.3333353,45.2827412 C29.4999612,46.7865975 28.666612,47.956345 27.6666369,48.7917636 L27.6666369,48.7917636 Z" id="path-7"></path>
        <filter x="-4.0%" y="-3.1%" width="108.0%" height="106.2%" filterUnits="objectBoundingBox" id="filter-8">
            <feGaussianBlur stdDeviation="1.5" in="SourceAlpha" result="shadowBlurInner1"></feGaussianBlur>
            <feOffset dx="0" dy="1" in="shadowBlurInner1" result="shadowOffsetInner1"></feOffset>
            <feComposite in="shadowOffsetInner1" in2="SourceAlpha" operator="arithmetic" k2="-1" k3="1" result="shadowInnerInner1"></feComposite>
            <feColorMatrix values="0 0 0 0 0   0 0 0 0 0   0 0 0 0 0  0 0 0 0.257184222 0" type="matrix" in="shadowInnerInner1"></feColorMatrix>
        </filter>
    </defs>
    <g id="无权限" stroke="none" stroke-width="1" fill="none" fill-rule="evenodd">
        <g id="编组" transform="translate(36.498329, 29.739379)">
            <path d="M218.989976,56.775179 L187.57617,56.775179 L187.37726,165.59911 C184.473286,176.501705 180.033623,181.681954 174.05827,181.139857 C173.963289,181.174738 138.300575,181.174738 67.0701282,181.139857 L66.2377088,19.9203943 C67.3545743,6.64013143 75.2260308,1.30739863e-12 89.8520783,1.30739863e-12 C104.478126,1.30739863e-12 142.459983,1.30739863e-12 203.79765,1.30739863e-12 C213.925867,0.569213873 218.989976,7.2093453 218.989976,19.9203943 C218.989976,32.6314433 218.989976,44.9163715 218.989976,56.775179 Z" id="路径-7" fill="url(#linearGradient-1)"></path>
            <path d="M203.79765,1.63424829e-13 C212.756526,1.6177911e-13 220.019129,7.26260385 220.019129,16.2214797 L220.019129,56.775179 L220.019129,56.775179 L187.57617,56.775179 L187.57617,16.2214797 C187.57617,7.26260385 194.838774,1.72175975e-13 203.79765,1.63424829e-13 Z" id="矩形备份-5" fill="#8CB0FE"></path>
            <path d="M50.0032473,143.289737 L177.084487,143.289737 L177.084487,181.139857 L64.872937,181.139857 C56.6606341,181.139857 50.0032473,174.48247 50.0032473,166.270167 L50.0032473,143.289737 L50.0032473,143.289737 Z" id="矩形备份-6" fill="#C0D3FA"></path>
            <path d="M157.391319,91.2276716 L187.130698,91.2276716 L187.130698,166.92791 C187.130698,175.140213 180.473311,181.7976 172.261008,181.7976 C164.048706,181.7976 157.391319,175.140213 157.391319,166.92791 L157.391319,91.2276716 L157.391319,91.2276716 Z" id="矩形备份-6" fill="url(#linearGradient-2)"></path>
            <circle id="椭圆形" fill="#D8D8D8" opacity="0.584347747" cx="175.056802" cy="123.688783" r="33.1188544"></circle>
            <circle id="椭圆形" stroke="url(#linearGradient-3)" stroke-width="8.11073986" cx="175.056802" cy="123.688783" r="29.0634845"></circle>
            <rect id="矩形" fill="url(#linearGradient-4)" transform="translate(215.404971, 158.209922) rotate(-52.000000) translate(-215.404971, -158.209922) " x="207.294231" y="146.719707" width="16.2214797" height="22.9804296"></rect>
            <rect id="矩形" fill="url(#linearGradient-5)" transform="translate(203.444391, 148.696897) rotate(40.000000) translate(-203.444391, -148.696897) " x="196.009547" y="144.641527" width="14.8696897" height="8.11073986"></rect>
            <path d="M157.533233,118.957394 C157.533233,118.957394 161.030569,104.825124 173.711645,106.83553" id="路径-9" stroke="#FFFFFF" stroke-width="4.05536993" stroke-linecap="round"></path>
            <circle id="椭圆形" fill="#C0D2FA" cx="241.970406" cy="89.2181384" r="6.75894988"></circle>
            <circle id="椭圆形备份" fill="#C0D2FA" cx="259.543675" cy="12.1661098" r="5.4071599"></circle>
            <circle id="椭圆形备份-2" fill="#C0D2FA" cx="13.5178998" cy="48.6644391" r="13.5178998"></circle>
            <path d="M275.765155,48.6644391 C278.751447,48.6644391 281.172315,51.0853071 281.172315,54.071599 L281.172315,143.289737 L281.172315,143.289737 L270.357995,143.289737 L270.357995,54.071599 C270.357995,51.0853071 272.778863,48.6644391 275.765155,48.6644391 Z" id="矩形" fill="url(#linearGradient-6)"></path>
            <path d="M17.5732697,114.902148 C20.5595616,114.902148 22.9804296,117.323016 22.9804296,120.309308 L22.9804296,209.527446 L22.9804296,209.527446 L12.1661098,209.527446 L12.1661098,120.309308 C12.1661098,117.323016 14.5869777,114.902148 17.5732697,114.902148 Z" id="矩形备份-7" fill="url(#linearGradient-6)"></path>
        </g>
        <g id="suozi" transform="translate(138.000000, 72.000000)" fill-rule="nonzero">
            <g id="形状">
                <use fill="#FFFFFF" xlink:href="#path-7"></use>
                <use fill="black" fill-opacity="1" filter="url(#filter-8)" xlink:href="#path-7"></use>
            </g>
        </g>
        <path d="M141.192,231.88 L141.192,230.648 C141.864,230.584 142.52,230.52 143.176,230.44 L143.176,229.096 L141.192,229.256 L141.192,228.536 L143.4,228.536 L143.4,227.064 L141.192,227.064 L141.192,226.184 L139.464,226.184 L139.464,227.064 L138.008,227.064 C138.36,226.68 138.712,226.264 139.064,225.8 L143.352,225.8 L143.352,224.392 L140.072,224.392 C140.184,224.232 140.28,224.056 140.36,223.896 L138.456,223.464 C138.328,223.768 138.168,224.088 138.008,224.392 L135.816,224.392 L135.816,225.8 L137.128,225.8 C136.936,226.104 136.744,226.344 136.648,226.44 C136.328,226.792 136.072,227.064 135.784,227.128 C135.976,227.592 136.264,228.424 136.36,228.776 C136.504,228.632 137.08,228.536 137.72,228.536 L139.464,228.536 L139.464,229.4 C138.072,229.496 136.808,229.592 135.816,229.656 L135.944,231.176 L139.464,230.824 L139.464,231.88 L141.192,231.88 Z M144.264,232.024 C145.064,231.064 145.416,229.72 145.56,228.44 L146.952,228.44 L146.952,231.912 L148.68,231.912 L148.68,228.44 L150.28,228.44 L150.28,226.952 L145.64,226.952 L145.64,225.752 C147.176,225.608 148.808,225.384 150.056,225.032 L149.224,223.592 C147.864,224.024 145.784,224.328 143.96,224.488 L143.96,226.824 C143.96,228.12 143.864,229.832 142.808,231.08 C143.208,231.256 143.944,231.752 144.264,232.024 Z M139.416,238.408 L139.416,237.896 L146.568,237.896 L146.568,238.392 L148.456,238.392 L148.456,232.2 L137.608,232.2 L137.608,238.408 L139.416,238.408 Z M146.568,234.424 L139.416,234.424 L139.416,233.624 L146.568,233.624 L146.568,234.424 Z M146.568,236.472 L139.416,236.472 L139.416,235.672 L146.568,235.672 L146.568,236.472 Z M152.792,238.392 C156.648,236.808 158.296,234.216 159.048,231.352 L159.048,235.464 C159.048,237.384 159.576,238.008 161.592,238.008 L163.976,238.008 C165.704,238.008 166.248,237.272 166.472,234.552 C165.928,234.424 165.064,234.088 164.648,233.752 C164.552,235.8 164.456,236.136 163.816,236.136 L161.848,236.136 C161.176,236.136 161.048,236.04 161.048,235.432 L161.048,230.872 L166.328,230.872 L166.328,228.984 L159.48,228.984 C159.592,228.104 159.64,227.192 159.688,226.312 L165.448,226.312 L165.448,224.44 L152.728,224.44 L152.728,226.312 L157.72,226.312 C157.688,227.192 157.64,228.104 157.544,228.984 L151.784,228.984 L151.784,230.872 L157.176,230.872 C156.52,233.304 155.032,235.448 151.512,236.792 C152.008,237.176 152.52,237.88 152.792,238.392 Z M171.944,238.392 L171.944,231.24 C172.552,231.992 173.176,232.84 173.528,233.4 L174.6,231.656 C174.248,231.272 172.568,229.656 171.944,229.144 L171.944,228.36 L173.784,228.36 L173.784,226.6 L171.944,226.6 L171.944,223.448 L170.072,223.448 L170.072,226.6 L167.688,226.6 L167.688,228.36 L169.72,228.36 C169.224,230.328 168.248,232.568 167.176,233.832 C167.544,234.344 168.04,235.256 168.248,235.8 C168.936,234.872 169.56,233.496 170.072,231.992 L170.072,238.392 L171.944,238.392 Z M181.144,238.472 C181.416,237.912 182.008,237.224 182.504,236.856 C181.064,236.04 179.944,235.144 179.048,234.056 C180.584,231.832 181.592,228.888 182.072,225.096 L180.856,224.712 L180.552,224.792 L173.96,224.792 L173.96,226.632 L174.776,226.632 L174.296,226.728 C174.824,229.784 175.528,232.12 176.664,234.024 C175.608,235.24 174.328,236.168 172.904,236.776 C173.32,237.128 173.832,237.864 174.104,238.36 C175.512,237.656 176.744,236.76 177.8,235.608 C178.696,236.664 179.784,237.592 181.144,238.472 Z M177.88,232.36 C177.064,230.824 176.504,228.968 176.072,226.632 L180.008,226.632 C179.576,228.856 178.872,230.776 177.88,232.36 Z M185.928,238.36 L185.928,225.768 L187.48,225.768 C187.224,226.824 186.872,228.12 186.568,229.096 C187.48,230.216 187.688,231.24 187.688,232.024 C187.688,232.472 187.592,232.824 187.4,232.968 C187.288,233.064 187.128,233.096 186.968,233.096 C186.792,233.112 186.552,233.096 186.28,233.08 C186.536,233.544 186.696,234.248 186.696,234.712 C187.064,234.728 187.448,234.728 187.736,234.68 C188.088,234.616 188.392,234.52 188.632,234.328 C189.144,233.944 189.352,233.256 189.352,232.232 C189.352,231.288 189.16,230.152 188.2,228.904 C188.632,227.672 189.16,226.056 189.576,224.712 L188.328,223.992 L188.072,224.072 L184.264,224.072 L184.264,238.36 L185.928,238.36 Z M190.12,238.44 C190.504,238.2 191.096,237.96 194.216,237.16 C194.152,236.76 194.12,235.976 194.136,235.432 L191.912,235.928 L191.912,231.432 L192.872,231.432 C193.624,234.568 194.904,237.032 197.288,238.344 C197.56,237.816 198.136,237.064 198.552,236.696 C197.496,236.216 196.632,235.464 195.96,234.552 C196.68,234.088 197.512,233.48 198.2,232.936 L196.968,231.592 C196.504,232.088 195.8,232.68 195.144,233.176 C194.888,232.632 194.68,232.056 194.504,231.432 L197.272,231.432 L197.272,224.088 L190.04,224.088 L190.04,235.56 C190.04,236.312 189.64,236.744 189.304,236.952 C189.576,237.272 189.976,238.024 190.12,238.44 Z M195.432,226.968 L191.912,226.968 L191.912,225.72 L195.432,225.72 L195.432,226.968 Z M195.432,229.784 L191.912,229.784 L191.912,228.504 L195.432,228.504 L195.432,229.784 Z" id="暂无权限" fill="#FFFFFF" fill-rule="nonzero"></path>
    </g>
</svg>