<?xml version="1.0" encoding="UTF-8"?>
<svg width="8px" height="8px" viewBox="0 0 8 8" version="1.1" xmlns="http://www.w3.org/2000/svg" xmlns:xlink="http://www.w3.org/1999/xlink">
    <title>对勾</title>
    <g id="页面-1" stroke="none" stroke-width="1" fill="none" fill-rule="evenodd">
        <g id="列表-导入数据-文件上传完成" transform="translate(-449.000000, -283.000000)" fill-rule="nonzero">
            <g id="编组-33" transform="translate(411.000000, 200.000000)">
                <g id="编组-27" transform="translate(38.000000, 80.000000)">
                    <g id="对勾" transform="translate(0.000000, 3.000000)">
                        <rect id="矩形" fill="#000000" opacity="0" x="0" y="0" width="8" height="8"></rect>
                        <path d="M3.30402372e-13,5.33257243 C3.30402372e-13,5.33257243 2.03169794,6.1761155 3.04160137,8 C4.25460894,5.74294272 6.58297755,3.63765154 7.27272727,3.48194744 C7.27272727,2.54788794 7.27272727,2.1637215 7.27272727,0.727272727 C4.49362734,2.55115723 3.15913288,5.90953621 3.15913288,5.90953621 L1.69706055,4.36364049 L3.30402372e-13,5.33257243 Z" id="路径" fill="#49C81F"></path>
                        <path d="M3.30402372e-13,5.33257243 C3.30402372e-13,5.33257243 2.03169794,6.1761155 3.04160137,8 C4.25460894,5.74294272 6.58297755,3.63765154 7.27272727,3.48194744 C7.27272727,2.54788794 7.27272727,2.1637215 7.27272727,0.727272727 C4.49362734,2.55115723 3.15913288,5.90953621 3.15913288,5.90953621 L1.69706055,4.36364049 L3.30402372e-13,5.33257243 Z" id="路径" fill="#49C81F"></path>
                    </g>
                </g>
            </g>
        </g>
    </g>
</svg>