<?xml version="1.0" encoding="UTF-8"?>
<svg width="8px" height="8px" viewBox="0 0 8 8" version="1.1" xmlns="http://www.w3.org/2000/svg" xmlns:xlink="http://www.w3.org/1999/xlink">
    <title>错误</title>
    <g id="页面-1" stroke="none" stroke-width="1" fill="none" fill-rule="evenodd">
        <g id="列表-导入数据-文件上传完成" transform="translate(-701.000000, -283.000000)" fill-rule="nonzero">
            <g id="编组-33" transform="translate(411.000000, 200.000000)">
                <g id="编组-28" transform="translate(290.000000, 80.000000)">
                    <g id="错误" transform="translate(0.000000, 3.000000)">
                        <rect id="矩形" fill="#000000" opacity="0" x="0" y="0" width="8" height="8"></rect>
                        <path d="M5.32710539,3.99998149 L6.84507188,2.48212949 C6.94422436,2.38297944 6.99992781,2.24850193 6.99992781,2.10828119 C6.99992781,1.96806046 6.94422436,1.83358295 6.84507188,1.7344329 L6.26554524,1.15501641 C6.05908708,0.948614421 5.72441082,0.948614421 5.51795266,1.15501641 L4.00009363,2.67276095 L2.48201968,1.15480149 C2.38285492,1.05566372 2.24836879,1 2.1081474,1 C1.96792602,1 1.83345589,1.05574268 1.73431964,1.15490895 L1.15490046,1.73421799 C1.05572164,1.83335405 1,1.9678368 1,2.10806628 C1,2.24829576 1.05572164,2.3827785 1.15490046,2.48191457 L2.67286695,3.99987403 L1.15490046,5.51794095 C1.05572164,5.61707701 1,5.75155976 1,5.89178924 C1,6.03201871 1.05572164,6.16650146 1.15490046,6.26563753 L1.73431964,6.84526894 C1.94086374,7.05156469 2.27547557,7.05156469 2.48201968,6.84526894 L3.99998617,5.32720202 L5.5178452,6.84526894 C5.72442616,7.05157702 6.05907174,7.05157702 6.2656527,6.84526894 L6.84517934,6.26563753 C7.05160689,6.05910658 7.05160689,5.72436443 6.84517934,5.51783349 L5.32710539,3.99998149 Z" id="路径" fill="#E22D2D"></path>
                    </g>
                </g>
            </g>
        </g>
    </g>
</svg>