<?xml version="1.0" encoding="UTF-8"?>
<svg width="38px" height="38px" viewBox="0 0 38 38" version="1.1" xmlns="http://www.w3.org/2000/svg" xmlns:xlink="http://www.w3.org/1999/xlink">
    <title>right</title>
    <g id="页面-1" stroke="none" stroke-width="1" fill="none" fill-rule="evenodd">
        <g id="审批日志" transform="translate(-61.000000, -650.000000)" fill-rule="nonzero">
            <g id="信息展示:40/步骤条Steps/纵向" transform="translate(0.000000, 177.000000)">
                <g id="编组" transform="translate(58.000000, 470.000000)">
                    <g id="right" transform="translate(3.523442, 3.523442)">
                        <path d="M18.476584,0 C8.271494,0 0,8.27579088 0,18.476584 C0,28.6773771 8.27579088,36.953168 18.476584,36.953168 C28.6773771,36.953168 36.953168,28.681674 36.953168,18.476584 C36.953168,8.271494 28.681674,0 18.476584,0 Z" id="路径" fill="#486CE8"></path>
                        <path d="M27.3496412,14.0035319 L17.7031456,23.6500275 L17.3937702,23.9594029 C16.5343942,24.8187789 15.1422051,24.8187789 14.2828291,23.9594029 L10.239465,19.9160388 C9.72383944,19.4004132 9.72383944,18.5668185 10.239465,18.0511929 C10.7550906,17.5355673 11.5886854,17.5355673 12.104311,18.0511929 L15.0605644,21.0074463 C15.4902524,21.4371343 16.186347,21.4371343 16.616035,21.0074463 L25.4804984,12.138686 C25.996124,11.6230604 26.8297187,11.6230604 27.3453443,12.138686 C27.8609699,12.6543116 27.8609699,13.4879063 27.3496412,14.0035319 Z" id="路径" fill="#FFFFFF"></path>
                    </g>
                </g>
            </g>
        </g>
    </g>
</svg>